# xmcd CD database file
#
# Track frame offsets:
#	150
#	13700
#	26172
#	43677
#	61175
#	79965
#	96085
#	108597
#	121390
#	140182
#	153312
#	164220
#	177860
#	190552
#	202452
#	212827
#	226337
#	238480
#	251935
#	263965
#
# Disc length: 3666 seconds
#
# Revision: 3
# Processed by: cddbd v1.5.2PL0 Copyright (c) Steve Scherf et al.
# Submitted via: CDex 1.51
#
DISCID=340e5014
DTITLE=Nat King Cole  - Vol. 163 - Nat King Cole Trio 1947 - 1956
DYEAR=1996
DGENRE=Jazz
TTITLE0=I was a Little Too Lonely and You were a Little Too Late
TTITLE1=Two Loves Have I
TTITLE2=Candy
TTITLE3=You Can Depend on Me
TTITLE4=Sometimes I'm Happy
TTITLE5=What is There to Say
TTITLE6=My Baby Just Cares For Me
TTITLE7=Can I Come in for a Second
TTITLE8=Blame It on My Youth
TTITLE9=Mule Train
TTITLE10=For You My Love
TTITLE11=I Almost Lost My Mind
TTITLE12=I'll Never Say "Never Again" Again
TTITLE13=The Lighthouse in the Sky
TTITLE14=The Greatest Inventor of Them All
TTITLE15=You Can't Lose a Broken Heart
TTITLE16=Old MacDonald Had a Farm
TTITLE17=Baby Won't You Say You Love Me
TTITLE18=Save the Bones for Henry James (' Cause Henry Don't Eat No Meat)
TTITLE19=My Baby Likes To Be-Bop (And I Like To Be-Bop Too)
EXTD=YEAR: 1996
EXTT0=
EXTT1=
EXTT2=
EXTT3=
EXTT4=
EXTT5=
EXTT6=
EXTT7=
EXTT8=
EXTT9=
EXTT10=
EXTT11=
EXTT12=
EXTT13=
EXTT14=
EXTT15=
EXTT16=
EXTT17=
EXTT18=
EXTT19=
PLAYORDER=
